<svg width="135" height="1000" viewBox="0 0 135 1000" fill="none" xmlns="http://www.w3.org/2000/svg">
<path d="M103.165 662.683C103.165 725.346 85.633 734.745 134.576 1000H5.27818C-10.0623 849.627 12.5096 952.167 16.6003 781.724C9.66115 544.668 101.47 469.463 51.2996 420.387C9.66116 379.656 154.3 -44.3627 46.1861 42.3207C148.456 -156.111 147.871 401.297 116.314 516.597C84.7563 631.897 103.165 566.6 103.165 662.683Z" fill="#35541C" fill-opacity="0.9"/>
<path d="M103.165 662.683C103.165 725.346 85.633 734.745 134.576 1000H5.27818C-10.0623 849.627 12.5096 952.167 16.6003 781.724C9.66115 544.668 101.47 469.463 51.2996 420.387C9.66116 379.656 154.3 -44.3627 46.1861 42.3207C148.456 -156.111 147.871 401.297 116.314 516.597C84.7563 631.897 103.165 566.6 103.165 662.683Z" fill="#35541C" fill-opacity="0.9"/>
<path d="M86.3634 659.55C75.406 750.284 49.8385 656.417 119.966 1000H27.1931C46.186 904.979 96.5904 992.707 41.0725 763.988C34.1333 526.932 96.8254 469.472 78.3279 406.81C58.7111 340.355 104.367 287.75 101.704 121.694C138.229 234.487 109.009 401.46 86.3634 530.047C65.2186 650.112 92.0306 612.622 86.3634 659.55Z" fill="#7C9767" fill-opacity="0.4"/>
</svg>
