<svg width="135" height="1000" viewBox="0 0 135 1000" fill="none" xmlns="http://www.w3.org/2000/svg">
<path d="M31.8351 662.683C31.8351 725.346 49.367 734.745 0.423663 1000H129.722C145.062 849.627 122.49 952.167 118.4 781.724C125.339 544.668 33.5304 469.463 83.7004 420.387C125.339 379.656 -19.2998 -44.3627 88.8139 42.3207C-13.4558 -156.111 -12.8714 401.297 18.6862 516.597C50.2437 631.897 31.8351 566.6 31.8351 662.683Z" fill="#35541C" fill-opacity="0.9"/>
<path d="M31.8351 662.683C31.8351 725.346 49.367 734.745 0.423663 1000H129.722C145.062 849.627 122.49 952.167 118.4 781.724C125.339 544.668 33.5304 469.463 83.7004 420.387C125.339 379.656 -19.2998 -44.3627 88.8139 42.3207C-13.4558 -156.111 -12.8714 401.297 18.6862 516.597C50.2437 631.897 31.8351 566.6 31.8351 662.683Z" fill="#35541C" fill-opacity="0.9"/>
<path d="M48.6366 659.55C59.594 750.284 85.1615 656.417 15.0337 1000H107.807C88.814 904.979 38.4096 992.707 93.9275 763.988C100.867 526.932 38.1746 469.472 56.6721 406.81C76.2889 340.355 30.6328 287.75 33.2961 121.694C-3.22878 234.487 25.9911 401.46 48.6366 530.047C69.7814 650.112 42.9694 612.622 48.6366 659.55Z" fill="#7C9767" fill-opacity="0.4"/>
</svg>
