<svg xmlns="http://www.w3.org/2000/svg" viewBox="0 0 64 64" role="img" aria-label="Earth mascot logo">
  <rect width="64" height="64" rx="12" fill="#f3f4f6"/>

  <!-- Orbit ring behind globe -->
  <ellipse cx="32" cy="34" rx="26" ry="11" fill="none" stroke="#0f2b5a" stroke-width="3.2"/>

  <!-- Globe body -->
  <circle cx="32" cy="29" r="18" fill="#58a9ff" stroke="#0f2b5a" stroke-width="1.6"/>

  <!-- Cap -->
  <path d="M20 14c4-4 18-4 24 2l-2.8 3.2c-4.6-3.9-12.7-4.4-18.4-1.3z" fill="#ef4d5b"/>
  <path d="M44 16c2.5 1.4 4 2.9 4.7 4.9-1.6.1-3.3.6-4.8 1.4-.9-1.7-1.3-3.9.1-6.3z" fill="#ef4d5b"/>
  <path d="M30.5 12.8c3.5-1.3 7.5-1.4 11.3-.3" stroke="#0f2b5a" stroke-width="1.2" fill="none"/>

  <!-- Continents -->
  <path d="M19 29c2-2 4-1 5.5.8 1.2 1.5.7 3.3-1 4.1-1.6.8-3.8.3-5.1-1.1-.9-1-.8-2.6.6-3.8z" fill="#8dc64e"/>
  <path d="M40 24c2.8-1.9 6.5-1 8.1 1.8 1.1 1.9.5 4.5-1.7 5.7-2.1 1.2-4.9 1.1-6.7-.4-1.9-1.6-1.7-4.6.3-7.1z" fill="#8dc64e"/>
  <path d="M36 34c1.7-1 3.7-.6 4.9.8.9 1 .9 2.7-.4 3.6-1.5 1.1-3.7 1.1-5.2 0-1.1-.8-1.2-2.8.7-4.4z" fill="#8dc64e"/>
  <path d="M31 19c1.2-1.1 2.7-1.2 3.9-.3.9.7 1 1.9.2 2.7-1 .9-2.6 1-3.6.3-.8-.6-.9-1.6-.5-2.7z" fill="#8dc64e"/>

  <!-- Eyes -->
  <circle cx="26.5" cy="28.5" r="3.2" fill="#fff"/>
  <circle cx="37.5" cy="28.5" r="3.2" fill="#fff"/>
  <circle cx="27.5" cy="29.2" r="1.6" fill="#0f2b5a"/>
  <circle cx="38.5" cy="29.2" r="1.6" fill="#0f2b5a"/>

  <!-- Smile -->
  <path d="M27 35c1.6 1.8 8.4 1.8 10 0" stroke="#0f2b5a" stroke-width="1.8" fill="none" stroke-linecap="round"/>

  <!-- Pot -->
  <path d="M26 43h12l-1.6 7H27.6z" fill="#f0b24d" stroke="#8a5c20" stroke-width="1"/>
  <rect x="24.5" y="41.4" width="15" height="2.6" rx="1.3" fill="#d89433"/>
  <path d="M32 40c0-3 1.9-4.7 4.5-5.8" stroke="#5ea43d" stroke-width="1.6" fill="none" stroke-linecap="round"/>
  <path d="M32 40c0-2.6-1.6-4.4-4.2-5.5" stroke="#5ea43d" stroke-width="1.6" fill="none" stroke-linecap="round"/>
  <ellipse cx="36.5" cy="34.6" rx="2.2" ry="1.2" transform="rotate(-20 36.5 34.6)" fill="#73c64a"/>
  <ellipse cx="27.7" cy="34.2" rx="2.1" ry="1.1" transform="rotate(22 27.7 34.2)" fill="#73c64a"/>

  <!-- Hands -->
  <path d="M19 42c2.5 1.8 4.7 2.5 7.5 2.6" stroke="#ffffff" stroke-width="2" fill="none" stroke-linecap="round"/>
  <path d="M45 42c-2.5 1.8-4.7 2.5-7.5 2.6" stroke="#ffffff" stroke-width="2" fill="none" stroke-linecap="round"/>
</svg>
